<?xml version="1.0" encoding="UTF-8"?>
<svg width="25px" height="21px" viewBox="0 0 25 21" version="1.1" xmlns="http://www.w3.org/2000/svg" xmlns:xlink="http://www.w3.org/1999/xlink">
    <!-- Generator: Sketch 56.3 (81716) - https://sketch.com -->
    <title>Icon/App/Facebook Copy</title>
    <desc>Created with Sketch.</desc>
    <defs>
        <path d="M26.5833333,7.14930556 C25.6770833,7.55208333 24.7708333,7.85416667 23.7638889,7.95486111 C24.7708333,7.35069444 25.5763889,6.34375 25.9791667,5.23611111 C24.9722222,5.84027778 23.9652778,6.24305556 22.8576389,6.44444444 C21.9513889,5.4375 20.6423611,4.83333333 19.2326389,4.83333333 C16.5138889,4.83333333 14.2986111,7.04861111 14.2986111,9.76736111 C14.2986111,10.1701389 14.2986111,10.5729167 14.3993056,10.875 C10.1701389,10.6736111 6.54513889,8.65972222 4.12847222,5.63888889 C3.625,6.44444444 3.42361111,7.25 3.42361111,8.15625 C3.42361111,9.86805556 4.32986111,11.3784722 5.63888889,12.2847222 C4.83333333,12.2847222 4.02777778,12.0833333 3.42361111,11.6805556 C3.42361111,11.6805556 3.42361111,11.6805556 3.42361111,11.78125 C3.42361111,14.1979167 5.13541667,16.2118056 7.35069444,16.6145833 C6.94791667,16.7152778 6.54513889,16.8159722 6.04166667,16.8159722 C5.73958333,16.8159722 5.4375,16.8159722 5.13541667,16.7152778 C5.73958333,18.7291667 7.55208333,20.1388889 9.76736111,20.1388889 C8.05555556,21.4479167 5.94097222,22.2534722 3.625,22.2534722 C3.22222222,22.2534722 2.81944444,22.2534722 2.41666667,22.1527778 C4.63194444,23.5625 7.25,24.3680556 9.96875,24.3680556 C19.1319444,24.3680556 24.0659722,16.8159722 24.0659722,10.2708333 L24.0659722,9.66666667 C25.0729167,8.96180556 25.8784722,8.05555556 26.5833333,7.14930556 Z" id="path-1"></path>
    </defs>
    <g id="Homepage" stroke="none" stroke-width="1" fill="none" fill-rule="evenodd">
        <g transform="translate(-129.000000, -6840.000000)" id="Group-3-Copy-2">
            <g transform="translate(0.000000, 6332.000000)">
                <g id="Group-3-Copy">
                    <g id="Group-5" transform="translate(41.000000, 504.000000)">
                        <g id="Icon/App/Twitter" transform="translate(86.000000, 0.000000)">
                            <polygon id="Bounding-Box" points="0 0 29 0 29 29 0 29"></polygon>
                            <mask id="mask-2" fill="white">
                                <use xlink:href="#path-1"></use>
                            </mask>
                            <use id="Mask" fill="#1DA1F2" fill-rule="evenodd" xlink:href="#path-1"></use>
                            <g id="Mixin/Fill/Black" mask="url(#mask-2)" fill="#D4D3CF" fill-rule="evenodd">
                                <rect id="Rectangle" x="0" y="0" width="29" height="29"></rect>
                            </g>
                        </g>
                    </g>
                </g>
            </g>
        </g>
    </g>
</svg>