<?xml version="1.0" encoding="UTF-8"?>
<svg width="19px" height="20px" viewBox="0 0 19 20" version="1.1" xmlns="http://www.w3.org/2000/svg" xmlns:xlink="http://www.w3.org/1999/xlink">
    <!-- Generator: Sketch 56.3 (81716) - https://sketch.com -->
    <title>magnifying-glass</title>
    <desc>Created with Sketch.</desc>
    <g id="Symbols" stroke="none" stroke-width="1" fill="none" fill-rule="evenodd">
        <g id="Global/desktop/header" transform="translate(-1038.000000, -70.000000)" fill="#5C4141" fill-rule="nonzero">
            <g id="Group-9">
                <g id="Group-2" transform="translate(387.000000, 69.000000)">
                    <g id="magnifying-glass" transform="translate(651.000000, 0.500000)">
                        <path d="M18.835662,18.5935421 L14.2173431,13.9762472 C15.4561987,12.5523004 16.2062542,10.694429 16.2062542,8.66383038 C16.2062542,4.19398559 12.5697494,0.5625 8.10312708,0.5625 C3.63229097,0.5625 0,4.19819845 0,8.66383038 C0,13.1294623 3.63650477,16.7651608 8.10312708,16.7651608 C10.1341761,16.7651608 11.9924595,16.0152716 13.4167221,14.7766907 L18.035041,19.3939856 C18.1445997,19.50352 18.2920825,19.5625 18.4353515,19.5625 C18.5786205,19.5625 18.7261033,19.5077328 18.835662,19.3939856 C19.0547793,19.1749169 19.0547793,18.8126109 18.835662,18.5935421 Z M1.13351076,8.66383038 C1.13351076,4.82170177 4.26014637,1.69997228 8.09891328,1.69997228 C11.941894,1.69997228 15.0643158,4.82591463 15.0643158,8.66383038 C15.0643158,12.5017461 11.941894,15.6319013 8.09891328,15.6319013 C4.26014637,15.6319013 1.13351076,12.505959 1.13351076,8.66383038 Z" id="Shape"></path>
                    </g>
                </g>
            </g>
        </g>
    </g>
</svg>