<?xml version="1.0" encoding="UTF-8"?>
<svg width="18px" height="18px" viewBox="0 0 18 18" version="1.1" xmlns="http://www.w3.org/2000/svg" xmlns:xlink="http://www.w3.org/1999/xlink">
    <!-- Generator: Sketch 56.3 (81716) - https://sketch.com -->
    <title>Group</title>
    <desc>Created with Sketch.</desc>
    <g id="Symbols" stroke="none" stroke-width="1" fill="none" fill-rule="evenodd">
        <g id="Global/desktop/header" transform="translate(-1298.000000, -69.000000)" fill="#5C4141" fill-rule="nonzero">
            <g id="Group-9">
                <g id="Group" transform="translate(1298.000000, 69.000000)">
                    <path d="M17.4375,18 L0.5625,18 C0.252,18 0,17.7598772 0,17.4628126 C0,13.1277099 4.037625,9.6 9,9.6 C13.962375,9.6 18,13.1277099 18,17.4628126 C18,17.7598772 17.7485625,18 17.4375,18 Z M1.1491875,16.9256251 L16.8508125,16.9256251 C16.5324375,13.4328324 13.1326875,10.6743749 9,10.6743749 C4.8673125,10.6743749 1.468125,13.4328324 1.1491875,16.9256251 Z" id="Shape"></path>
                    <path d="M9,10.8 C6.02241342,10.8 3.6,8.37745466 3.6,5.39970593 C3.6,2.4219572 6.02241342,0 9,0 C11.9769985,0 14.4,2.42254534 14.4,5.40029407 C14.4,8.3780428 11.9769985,10.8 9,10.8 Z M9,1.17627839 C6.67109562,1.17627839 4.77621433,3.07126287 4.77621433,5.40029407 C4.77621433,7.72932527 6.67109562,9.62372161 9,9.62372161 C11.3289044,9.62372161 13.2237857,7.72873713 13.2237857,5.39970593 C13.2237857,3.07067473 11.3289044,1.17627839 9,1.17627839 Z" id="Shape"></path>
                </g>
            </g>
        </g>
    </g>
</svg>