<?xml version="1.0" encoding="UTF-8"?>
<svg width="15px" height="18px" viewBox="0 0 15 18" version="1.1" xmlns="http://www.w3.org/2000/svg" xmlns:xlink="http://www.w3.org/1999/xlink">
    <!-- Generator: Sketch 56.3 (81716) - https://sketch.com -->
    <title>shopping-bag</title>
    <desc>Created with Sketch.</desc>
    <g id="Symbols" stroke="none" stroke-width="1" fill="none" fill-rule="evenodd">
        <g id="Global/desktop/header" transform="translate(-1350.000000, -69.000000)" fill="#5C4141" fill-rule="nonzero">
            <g id="Group-9">
                <g id="shopping-bag" transform="translate(1350.000000, 69.000000)">
                    <path d="M14.9961676,15.5595092 L13.9230966,3.95337423 C13.9001022,3.69570552 13.6739908,3.5006135 13.4095554,3.5006135 L11.202095,3.5006135 C11.1714359,1.56441718 9.52350537,0 7.5,0 C5.47649463,0 3.82856413,1.56441718 3.79790496,3.5006135 L1.59044456,3.5006135 C1.3221768,3.5006135 1.0998978,3.69570552 1.07690342,3.95337423 L0.00383239653,15.5595092 C0.00383239653,15.5742331 0,15.5889571 0,15.603681 C0,16.9251534 1.26085846,18 2.81297905,18 L12.187021,18 C13.7391415,18 15,16.9251534 15,15.603681 C15,15.5889571 15,15.5742331 14.9961676,15.5595092 Z M7.5,0.993865031 C8.95247828,0.993865031 10.1366888,2.11288344 10.167348,3.5006135 L4.83265202,3.5006135 C4.86331119,2.11288344 6.04752172,0.993865031 7.5,0.993865031 Z M12.187021,17.006135 L2.81297905,17.006135 C1.83955033,17.006135 1.05007665,16.3877301 1.03474706,15.6257669 L2.06182933,4.49815951 L3.79407256,4.49815951 L3.79407256,6.00736196 C3.79407256,6.28343558 4.02401635,6.50429448 4.31144609,6.50429448 C4.59887583,6.50429448 4.82881962,6.28343558 4.82881962,6.00736196 L4.82881962,4.49815951 L10.167348,4.49815951 L10.167348,6.00736196 C10.167348,6.28343558 10.3972918,6.50429448 10.6847215,6.50429448 C10.9721513,6.50429448 11.202095,6.28343558 11.202095,6.00736196 L11.202095,4.49815951 L12.9343383,4.49815951 L13.9652529,15.6257669 C13.9499234,16.3877301 13.1566173,17.006135 12.187021,17.006135 Z" id="Shape"></path>
                </g>
            </g>
        </g>
    </g>
</svg>