<?xml version="1.0" encoding="UTF-8"?>
<svg width="25px" height="25px" viewBox="0 0 25 25" version="1.1" xmlns="http://www.w3.org/2000/svg" xmlns:xlink="http://www.w3.org/1999/xlink">
    <!-- Generator: Sketch 56.3 (81716) - https://sketch.com -->
    <title>Icon/App/Facebook Copy 3</title>
    <desc>Created with Sketch.</desc>
    <defs>
        <path d="M14.5,4.59368056 C17.72625,4.59368056 18.1088889,4.60576389 19.3826736,4.66416667 C20.7581597,4.72659722 22.0339583,5.0025 23.0157292,5.98427083 C23.9975,6.96604167 24.2734028,8.24184028 24.3358333,9.61732639 C24.3942361,10.8911111 24.4063194,11.27375 24.4063194,14.5 C24.4063194,17.72625 24.3942361,18.1088889 24.3358333,19.3826736 C24.2734028,20.7581597 23.9975,22.0339583 23.0157292,23.0157292 C22.0339583,23.9975 20.7581597,24.2734028 19.3826736,24.3358333 C18.1088889,24.3942361 17.72625,24.4063194 14.5,24.4063194 C11.27375,24.4063194 10.8911111,24.3942361 9.61732639,24.3358333 C8.24184028,24.2734028 6.96604167,23.9975 5.98427083,23.0157292 C5.0025,22.0339583 4.72659722,20.7581597 4.66416667,19.3826736 C4.60576389,18.1088889 4.59368056,17.72625 4.59368056,14.5 C4.59368056,11.27375 4.60576389,10.8911111 4.66416667,9.61732639 C4.72659722,8.24184028 5.0025,6.96604167 5.98427083,5.98427083 C6.96604167,5.0025 8.24184028,4.72659722 9.61732639,4.66416667 C10.8911111,4.60576389 11.27375,4.59368056 14.5,4.59368056 L14.5,4.59368056 Z M14.5,2.41666667 C17.7816319,2.41666667 18.1934722,2.43076389 19.4823611,2.48916667 C21.4459028,2.57878472 23.1707986,3.06010417 24.5553472,4.44465278 C25.9398958,5.82920139 26.4212153,7.55409722 26.5108333,9.51763889 C26.5692361,10.8065278 26.5833333,11.2183681 26.5833333,14.5 C26.5833333,17.7816319 26.5692361,18.1934722 26.5108333,19.4823611 C26.4212153,21.4459028 25.9398958,23.1707986 24.5553472,24.5553472 C23.1707986,25.9398958 21.4459028,26.4212153 19.4823611,26.5108333 C18.1934722,26.5692361 17.7816319,26.5833333 14.5,26.5833333 C11.2183681,26.5833333 10.8065278,26.5692361 9.51763889,26.5108333 C7.55409722,26.4212153 5.82920139,25.9398958 4.44465278,24.5553472 C3.06010417,23.1707986 2.57878472,21.4459028 2.48916667,19.4823611 C2.43076389,18.1934722 2.41666667,17.7816319 2.41666667,14.5 C2.41666667,11.2183681 2.43076389,10.8065278 2.48916667,9.51763889 C2.57878472,7.55409722 3.06010417,5.82920139 4.44465278,4.44465278 C5.82920139,3.06010417 7.55409722,2.57878472 9.51763889,2.48916667 C10.8065278,2.43076389 11.2183681,2.41666667 14.5,2.41666667 Z M14.5,8.29520833 C11.0733681,8.29520833 8.29520833,11.0733681 8.29520833,14.5 C8.29520833,17.9266319 11.0733681,20.7047917 14.5,20.7047917 C17.9266319,20.7047917 20.7047917,17.9266319 20.7047917,14.5 C20.7047917,11.0733681 17.9266319,8.29520833 14.5,8.29520833 Z M14.5,18.5277778 C12.2756597,18.5277778 10.4722222,16.7243403 10.4722222,14.5 C10.4722222,12.2756597 12.2756597,10.4722222 14.5,10.4722222 C16.7243403,10.4722222 18.5277778,12.2756597 18.5277778,14.5 C18.5277778,16.7243403 16.7243403,18.5277778 14.5,18.5277778 Z M20.9504861,9.49951389 C21.751299,9.49951389 22.4004861,8.85032678 22.4004861,8.04951389 C22.4004861,7.248701 21.751299,6.59951389 20.9504861,6.59951389 C20.1496732,6.59951389 19.5004861,7.248701 19.5004861,8.04951389 C19.5004861,8.85032678 20.1496732,9.49951389 20.9504861,9.49951389 Z" id="path-1"></path>
    </defs>
    <g id="Homepage" stroke="none" stroke-width="1" fill="none" fill-rule="evenodd">
        <g transform="translate(-302.000000, -6838.000000)" id="Group-3-Copy-2">
            <g transform="translate(0.000000, 6332.000000)">
                <g id="Group-3-Copy">
                    <g id="Group-5" transform="translate(41.000000, 504.000000)">
                        <g id="Icon/App/Instagram" transform="translate(259.000000, 0.000000)">
                            <polygon id="Bounding-Box" points="0 0 29 0 29 29 0 29"></polygon>
                            <mask id="mask-2" fill="white">
                                <use xlink:href="#path-1"></use>
                            </mask>
                            <use id="Mask" fill="#000000" fill-rule="evenodd" xlink:href="#path-1"></use>
                            <g id="Mixin/Fill/Black" mask="url(#mask-2)" fill="#D4D3CF" fill-rule="evenodd">
                                <rect id="Rectangle" x="0" y="0" width="29" height="29"></rect>
                            </g>
                        </g>
                    </g>
                </g>
            </g>
        </g>
    </g>
</svg>