<?xml version="1.0" encoding="UTF-8"?>
<svg width="25px" height="25px" viewBox="0 0 25 25" version="1.1" xmlns="http://www.w3.org/2000/svg" xmlns:xlink="http://www.w3.org/1999/xlink">
    <!-- Generator: Sketch 56.3 (81716) - https://sketch.com -->
    <title>Icon/App/Facebook Copy 2</title>
    <desc>Created with Sketch.</desc>
    <defs>
        <path d="M14.5,2.41666667 C7.85416667,2.41666667 2.41666667,7.85416667 2.41666667,14.5 C2.41666667,19.6354167 5.63888889,23.9652778 10.0694444,25.7777778 C9.96875,24.8715278 9.86805556,23.3611111 10.0694444,22.3541667 C10.2708333,21.4479167 11.4791667,16.3125 11.4791667,16.3125 C11.4791667,16.3125 11.1770833,15.5069444 11.1770833,14.5 C11.1770833,12.7881944 12.1840278,11.5798611 13.3923611,11.5798611 C14.3993056,11.5798611 14.9027778,12.3854167 14.9027778,13.2916667 C14.9027778,14.2986111 14.1979167,15.9097222 13.8958333,17.3194444 C13.59375,18.5277778 14.5,19.5347222 15.7083333,19.5347222 C17.8229167,19.5347222 19.5347222,17.3194444 19.5347222,13.9965278 C19.5347222,11.0763889 17.4201389,9.0625 14.5,9.0625 C11.0763889,9.0625 9.0625,11.6805556 9.0625,14.2986111 C9.0625,15.3055556 9.46527778,16.4131944 9.96875,17.0173611 C10.0694444,17.1180556 10.0694444,17.21875 10.0694444,17.3194444 C9.96875,17.7222222 9.76736111,18.5277778 9.76736111,18.7291667 C9.66666667,18.9305556 9.56597222,19.03125 9.36458333,18.9305556 C7.85416667,18.2256944 6.94791667,16.0104167 6.94791667,14.2986111 C6.94791667,10.4722222 9.76736111,6.94791667 14.9027778,6.94791667 C19.1319444,6.94791667 22.3541667,9.96875 22.3541667,13.8958333 C22.3541667,18.0243056 19.7361111,21.4479167 16.1111111,21.4479167 C14.9027778,21.4479167 13.6944444,20.84375 13.2916667,20.0381944 C13.2916667,20.0381944 12.6875,22.3541667 12.5868056,22.9583333 C12.2847222,23.9652778 11.5798611,25.2743056 11.0763889,26.0798611 C12.0833333,26.3819444 13.2916667,26.5833333 14.5,26.5833333 C21.1458333,26.5833333 26.5833333,21.1458333 26.5833333,14.5 C26.5833333,7.85416667 21.1458333,2.41666667 14.5,2.41666667 Z" id="path-1"></path>
    </defs>
    <g id="Homepage" stroke="none" stroke-width="1" fill="none" fill-rule="evenodd">
        <g transform="translate(-216.000000, -6838.000000)" id="Group-3-Copy-2">
            <g transform="translate(0.000000, 6332.000000)">
                <g id="Group-3-Copy">
                    <g id="Group-5" transform="translate(41.000000, 504.000000)">
                        <g id="Icon/App/Pinterest" transform="translate(173.000000, 0.000000)">
                            <polygon id="Bounding-Box" points="0 0 29 0 29 29 0 29"></polygon>
                            <mask id="mask-2" fill="white">
                                <use xlink:href="#path-1"></use>
                            </mask>
                            <use id="Mask" fill="#BD081C" fill-rule="evenodd" xlink:href="#path-1"></use>
                            <g id="Mixin/Fill/Black" mask="url(#mask-2)" fill="#D4D3CF" fill-rule="evenodd">
                                <rect id="Rectangle" x="0" y="0" width="29" height="29"></rect>
                            </g>
                        </g>
                    </g>
                </g>
            </g>
        </g>
    </g>
</svg>