<?xml version="1.0" encoding="UTF-8"?>
<svg width="12px" height="19px" viewBox="0 0 12 19" version="1.1" xmlns="http://www.w3.org/2000/svg" xmlns:xlink="http://www.w3.org/1999/xlink">
    <!-- Generator: Sketch 56.3 (81716) - https://sketch.com -->
    <title>Icon/App/Facebook</title>
    <desc>Created with Sketch.</desc>
    <defs>
        <path d="M11.5840315,23.9510329 L11.5569414,15.3591848 L8.12020215,15.3591848 L8.12020215,11.9224456 L11.5569414,11.9224456 L11.5569414,9.77448357 C11.5569414,6.58570509 13.531623,5.04896715 16.3762292,5.04896715 C17.7388276,5.04896715 18.9099051,5.1504111 19.2511905,5.19575887 L19.2511905,8.52821883 L17.2783045,8.52911238 C15.7312478,8.52911238 15.4317016,9.26424809 15.4317016,10.3430148 L15.4317016,11.9224456 L19.9339932,11.9224456 L18.2156236,15.3591848 L15.4317016,15.3591848 L15.4317016,23.9510329 L11.5840315,23.9510329 Z" id="path-1"></path>
    </defs>
    <g id="Homepage" stroke="none" stroke-width="1" fill="none" fill-rule="evenodd">
        <g transform="translate(-49.000000, -6841.000000)" id="Group-3-Copy-2">
            <g transform="translate(0.000000, 6332.000000)">
                <g id="Group-3-Copy">
                    <g id="Group-5" transform="translate(41.000000, 504.000000)">
                        <g id="Icon/App/Facebook">
                            <polygon id="Bounding-Box" points="0 0 29 0 29 29 0 29"></polygon>
                            <mask id="mask-2" fill="white">
                                <use xlink:href="#path-1"></use>
                            </mask>
                            <use id="Mask" fill="#3B5998" fill-rule="evenodd" xlink:href="#path-1"></use>
                            <g id="Mixin/Fill/Black" mask="url(#mask-2)" fill="#D4D3CF" fill-rule="evenodd">
                                <rect id="Rectangle" x="0" y="0" width="29" height="29"></rect>
                            </g>
                        </g>
                    </g>
                </g>
            </g>
        </g>
    </g>
</svg>